<svg width="123" height="123" viewBox="0 0 123 123" fill="none" xmlns="http://www.w3.org/2000/svg">
<path d="M20.0825 61.0977C20.3049 38.1961 39.0009 19.8598 61.9025 20.0822C84.8041 20.3047 103.14 39.0007 102.918 61.9022C102.696 84.8038 83.9995 103.14 61.098 102.918C38.1964 102.695 19.8601 83.9993 20.0825 61.0977ZM98.0453 61.8549C98.2417 41.6333 82.0768 25.1513 61.8552 24.9549C41.6336 24.7585 25.1516 40.9234 24.9552 61.145C24.7588 81.3666 40.9237 97.8486 61.1453 98.045C81.3669 98.2414 97.8489 82.0765 98.0453 61.8549Z" fill="white"/>
<path d="M57.1618 81.6814L77.5798 61.6562L57.5546 41.2382L60.9986 37.8604L84.4015 61.7224L60.5395 85.1254L57.1618 81.6814Z" fill="white"/>
<path d="M81.0143 59.2529L80.967 64.1256L39.5493 63.7233L39.5966 58.8506L81.0143 59.2529Z" fill="white"/>
</svg>
