<svg width="58" height="53" viewBox="0 0 58 53" fill="none" xmlns="http://www.w3.org/2000/svg">
<path fill-rule="evenodd" clip-rule="evenodd" d="M16.1646 3.93378C16.959 2.72381 18.0353 1.73167 19.298 1.04544C20.5607 0.359211 21.9708 0.000105642 23.403 0H34.597C36.0292 0.000105642 37.4393 0.359211 38.702 1.04544C39.9647 1.73167 41.041 2.72381 41.8354 3.93378L44.1902 7.52306C44.4551 7.9262 44.8139 8.25672 45.2348 8.48528C45.6557 8.71385 46.1257 8.83341 46.603 8.83333H49.3C51.6074 8.83333 53.8203 9.76399 55.4518 11.4206C57.0834 13.0771 58 15.3239 58 17.6667V44.1667C58 46.5094 57.0834 48.7562 55.4518 50.4128C53.8203 52.0693 51.6074 53 49.3 53H8.7C6.39262 53 4.17974 52.0693 2.54817 50.4128C0.916605 48.7562 0 46.5094 0 44.1667V17.6667C0 15.3239 0.916605 13.0771 2.54817 11.4206C4.17974 9.76399 6.39262 8.83333 8.7 8.83333H11.397C11.8743 8.83341 12.3443 8.71385 12.7652 8.48528C13.1861 8.25672 13.5449 7.9262 13.8098 7.52306L16.1646 3.93378ZM23.2 29.4444C23.2 27.8826 23.8111 26.3848 24.8988 25.2804C25.9865 24.176 27.4617 23.5556 29 23.5556C30.5383 23.5556 32.0135 24.176 33.1012 25.2804C34.1889 26.3848 34.8 27.8826 34.8 29.4444C34.8 31.0063 34.1889 32.5041 33.1012 33.6085C32.0135 34.7129 30.5383 35.3333 29 35.3333C27.4617 35.3333 25.9865 34.7129 24.8988 33.6085C23.8111 32.5041 23.2 31.0063 23.2 29.4444ZM29 17.6667C25.9235 17.6667 22.973 18.9075 20.7976 21.1163C18.6221 23.3251 17.4 26.3208 17.4 29.4444C17.4 32.5681 18.6221 35.5638 20.7976 37.7726C22.973 39.9814 25.9235 41.2222 29 41.2222C32.0765 41.2222 35.027 39.9814 37.2024 37.7726C39.3779 35.5638 40.6 32.5681 40.6 29.4444C40.6 26.3208 39.3779 23.3251 37.2024 21.1163C35.027 18.9075 32.0765 17.6667 29 17.6667Z" fill="white"/>
</svg>
