<svg width="56" height="56" viewBox="0 0 56 56" fill="none" xmlns="http://www.w3.org/2000/svg">
<path fill-rule="evenodd" clip-rule="evenodd" d="M12.7633 12.7633C13.0914 12.4355 13.5362 12.2515 13.9999 12.2515C14.4637 12.2515 14.9085 12.4355 15.2366 12.7633L43.2366 40.7633C43.4085 40.9235 43.5464 41.1167 43.6421 41.3313C43.7377 41.546 43.7892 41.7777 43.7933 42.0127C43.7974 42.2477 43.7542 42.4811 43.6662 42.699C43.5782 42.9169 43.4472 43.1148 43.281 43.281C43.1148 43.4472 42.9169 43.5782 42.699 43.6662C42.4811 43.7542 42.2477 43.7974 42.0127 43.7933C41.7777 43.7892 41.546 43.7377 41.3313 43.6421C41.1167 43.5464 40.9235 43.4085 40.7633 43.2366L12.7633 15.2366C12.4355 14.9085 12.2515 14.4637 12.2515 13.9999C12.2515 13.5362 12.4355 13.0914 12.7633 12.7633Z" fill="white"/>
<path fill-rule="evenodd" clip-rule="evenodd" d="M43.2365 12.7633C43.5642 13.0914 43.7483 13.5362 43.7483 13.9999C43.7483 14.4637 43.5642 14.9085 43.2365 15.2366L15.2365 43.2366C14.9047 43.5457 14.466 43.714 14.0126 43.706C13.5592 43.698 13.1267 43.5143 12.806 43.1937C12.4854 42.8731 12.3017 42.4405 12.2937 41.9871C12.2857 41.5338 12.454 41.095 12.7631 40.7633L40.7631 12.7633C41.0913 12.4355 41.5361 12.2515 41.9998 12.2515C42.4636 12.2515 42.9083 12.4355 43.2365 12.7633Z" fill="white"/>
</svg>
