<svg width="63" height="63" viewBox="0 0 63 63" fill="none" xmlns="http://www.w3.org/2000/svg">
<path d="M27.8246 42C27.8246 38.4562 28.1422 35.9083 28.7775 34.356C29.4127 32.8038 30.7576 31.108 32.8121 29.2687C34.6059 27.6937 35.9735 26.327 36.915 25.1685C37.8565 24.01 38.3264 22.6861 38.3246 21.1969C38.3246 19.4031 37.7235 17.9156 36.5212 16.7344C35.319 15.5531 33.6451 14.9625 31.4996 14.9625C29.2684 14.9625 27.5735 15.6406 26.415 16.9969C25.2565 18.3531 24.4357 19.7313 23.9527 21.1313L17.1934 18.2437C18.1121 15.4437 19.7965 13.0156 22.2465 10.9594C24.6965 8.90313 27.7809 7.875 31.4996 7.875C36.0934 7.875 39.6266 9.15512 42.0994 11.7154C44.5721 14.2756 45.8076 17.3486 45.8059 20.9344C45.8059 23.1219 45.336 24.9926 44.3962 26.5466C43.4565 28.1006 41.9795 29.8611 39.9652 31.8281C37.8215 33.8844 36.5204 35.4489 36.0619 36.5216C35.6034 37.5944 35.3732 39.4205 35.3715 42H27.8246ZM31.4996 57.75C30.0559 57.75 28.8204 57.2364 27.7931 56.2091C26.7659 55.1819 26.2514 53.9455 26.2496 52.5C26.2479 51.0545 26.7624 49.819 27.7931 48.7935C28.8239 47.768 30.0594 47.2535 31.4996 47.25C32.9399 47.2465 34.1762 47.761 35.2087 48.7935C36.2412 49.826 36.7549 51.0615 36.7496 52.5C36.7444 53.9385 36.2307 55.1749 35.2087 56.2091C34.1867 57.2434 32.9504 57.757 31.4996 57.75Z" fill="white"/>
</svg>
