<svg width="65" height="65" viewBox="0 0 65 65" fill="none" xmlns="http://www.w3.org/2000/svg">
<path fill-rule="evenodd" clip-rule="evenodd" d="M30.3306 7.00623C30.9943 6.63771 31.7409 6.44434 32.5 6.44434C33.2591 6.44434 34.0057 6.63771 34.6694 7.00623L54.1694 17.8396C55.5885 18.6277 56.4688 20.1227 56.4688 21.7477V43.2519C56.4688 44.8769 55.5885 46.3719 54.1694 47.16L34.6694 57.9933C34.0057 58.3618 33.2591 58.5552 32.5 58.5552C31.7409 58.5552 30.9943 58.3618 30.3306 57.9933L10.8306 47.16C10.1336 46.7729 9.55275 46.2064 9.14844 45.5192C8.74412 44.832 8.53102 44.0492 8.53125 43.2519V21.7477C8.53125 20.1227 9.41146 18.6277 10.8306 17.8396L30.3306 7.00623ZM32.6977 10.5596C32.6373 10.5259 32.5692 10.5082 32.5 10.5082C32.4308 10.5082 32.3627 10.5259 32.3023 10.5596L12.8023 21.3929C12.7395 21.4279 12.6871 21.4789 12.6505 21.5408C12.6138 21.6026 12.5942 21.6731 12.5938 21.745V43.2546C12.5938 43.4008 12.675 43.5362 12.8023 43.6066L32.3023 54.44C32.3627 54.4737 32.4308 54.4913 32.5 54.4913C32.5692 54.4913 32.6373 54.4737 32.6977 54.44L52.1977 43.6066C52.2605 43.5717 52.3129 43.5206 52.3495 43.4588C52.3862 43.3969 52.4058 43.3265 52.4062 43.2546V21.7477C52.4062 21.6753 52.3869 21.6043 52.3502 21.5419C52.3136 21.4796 52.2609 21.4281 52.1977 21.3929L32.6977 10.5596Z" fill="white"/>
<path fill-rule="evenodd" clip-rule="evenodd" d="M19.6354 32.4998C19.6354 29.0879 20.9907 25.8158 23.4033 23.4032C25.8159 20.9906 29.0881 19.6353 32.5 19.6353C35.9119 19.6353 39.184 20.9906 41.5966 23.4032C44.0092 25.8158 45.3645 29.0879 45.3645 32.4998C45.3645 35.9117 44.0092 39.1839 41.5966 41.5965C39.184 44.009 35.9119 45.3644 32.5 45.3644C29.0881 45.3644 25.8159 44.009 23.4033 41.5965C20.9907 39.1839 19.6354 35.9117 19.6354 32.4998ZM32.5 23.6978C30.1655 23.6978 27.9267 24.6251 26.2759 26.2758C24.6252 27.9265 23.6979 30.1654 23.6979 32.4998C23.6979 34.8343 24.6252 37.0731 26.2759 38.7238C27.9267 40.3746 30.1655 41.3019 32.5 41.3019C34.8344 41.3019 37.0733 40.3746 38.724 38.7238C40.3747 37.0731 41.302 34.8343 41.302 32.4998C41.302 30.1654 40.3747 27.9265 38.724 26.2758C37.0733 24.6251 34.8344 23.6978 32.5 23.6978Z" fill="white"/>
</svg>
